// We Wish You a Merry Christmas
// http://piano.score.sukkiri.org/xmas/wish.html

/*
kore dame
PROGMEM const unsigned int melody[] = {
  NOTE_C5, NOTE_F5, NOTE_F5, NOTE_G5, NOTE_F5, NOTE_E5,
  NOTE_D5, NOTE_D5, NOTE_D5, NOTE_G5,
  NOTE_G5, NOTE_A5, NOTE_G5, NOTE_F5, NOTE_E5, NOTE_C5,
  NOTE_C5, NOTE_A5, NOTE_A5, NOTE_C4, NOTE_A5, NOTE_G5, NOTE_F5,
  NOTE_D5, NOTE_C5, NOTE_C5, NOTE_D5, NOTE_G5,
  NOTE_E5, NOTE_F5, NOTE_C5,
  NOTE_F5, NOTE_F5, NOTE_F5, NOTE_E5, NOTE_E5,
  NOTE_F5, NOTE_E5, NOTE_D5, NOTE_C5, NOTE_G5,
  NOTE_A5, NOTE_G5, NOTE_F5, NOTE_C5,
  NOTE_C6, NOTE_C5, NOTE_C5, NOTE_D5, NOTE_G5, NOTE_E5, NOTE_F5
};

PROGMEM const unsigned int noteDurations[] = {
  256, 256, 128, 128, 128, 128,
  256, 256, 256, 256,
  128, 128, 128, 128, 256, 256,
  256, 256, 128, 128, 128, 128, 256,
  256, 128, 128, 256, 256,
  256, 512, 256,
  256, 256, 256, 512, 256,
  256, 256, 256, 512, 256,
  256, 256, 256, 256,
  256, 128, 128, 256, 256, 256, 512
};
*/

/*
PROGMEM const unsigned int melody[] = {
  NOTE_D5,  NOTE_G5,
  NOTE_G5,  NOTE_A5,  NOTE_G5,  NOTE_F5,  NOTE_E5,  NOTE_E5, NOTE_RT
  NOTE_E5,  NOTE_A5,  NOTE_A5,  NOTE_B5,  NOTE_A5,  NOTE_G5,
  NOTE_F5,  NOTE_B5,  NOTE_RT,  NOTE_B5,  NOTE_B5,
  NOTE_B5,  NOTE_C6,  NOTE_B5,  NOTE_A5,  NOTE_G5,  NOTE_E5,
  NOTE_D5,  NOTE_D5,  NOTE_E5,  NOTE_A5,  NOTE_F5
};

PROGMEM const unsigned int noteDurations[] = {
 256, 256,
 128, 128, 128, 128, 256, 128, 128,
 256, 256, 128, 128, 128, 128,
 256, 128, 128, 256, 256,
 128, 128, 128, 128, 256, 256,
 128, 128, 256, 256, 256
};

*/

/*
PROGMEM const unsigned int melody[] = {
  NOTE_D5,  NOTE_D5,  NOTE_E5,  NOTE_A5,  NOTE_FS5 , NOTE_G5
//  NOTE_C5,  NOTE_C5,  NOTE_D5,  NOTE_G5,  NOTE_E5, NOTE_F5
};

PROGMEM const unsigned int noteDurations[] = {
 128, 128, 256, 256, 256 ,512
};
*/

/*
PROGMEM const unsigned int melody[] = {
  NOTE_D5,  NOTE_G5,
  NOTE_G5,  NOTE_A5,  NOTE_G5,  NOTE_F5,  NOTE_E5,  NOTE_E5, NOTE_RT,
  NOTE_E5,  NOTE_A5,  NOTE_A5,  NOTE_B5,  NOTE_A5,  NOTE_G5,
  NOTE_F5,  NOTE_B5,  NOTE_RT,  NOTE_B5,  NOTE_B5,
  NOTE_B5,  NOTE_C6,  NOTE_B5,  NOTE_A5,  NOTE_G5,  NOTE_E5,
  NOTE_D5,  NOTE_D5,  NOTE_E5,  NOTE_A5,  NOTE_FS5, NOTE_G5
};

PROGMEM const unsigned int noteDurations[] = {
 256, 256,
 128, 128, 128, 128, 256, 128, 128,
 256, 256, 128, 128, 128, 128,
 256, 128, 128, 256, 256,
 128, 128, 128, 128, 256, 256,
 128, 128, 256, 256, 256, 512
};
*/

PROGMEM const unsigned int melody[] = {
  NOTE_D5,NOTE_G5,
  NOTE_G5,NOTE_A5,NOTE_G5,NOTE_FS5,NOTE_E5,NOTE_E5,NOTE_RT,
  NOTE_E5,NOTE_A5,NOTE_A5,NOTE_B5,NOTE_A5,NOTE_G5,
  NOTE_FS5,NOTE_D5,NOTE_RT,NOTE_D5,NOTE_B5,
  NOTE_B5,NOTE_C6,NOTE_B5,NOTE_A5,NOTE_G5,NOTE_E5,
  NOTE_D5,NOTE_D5,NOTE_E5,NOTE_A5,NOTE_FS5,

  NOTE_G5,NOTE_RT,NOTE_D5,NOTE_G5,
  NOTE_G5,NOTE_G5,NOTE_FS5,
  NOTE_FS5,NOTE_G5,NOTE_FS5,NOTE_E5,
  NOTE_D5,NOTE_RT,NOTE_A5,NOTE_B5,
  NOTE_A5,NOTE_G5,NOTE_D6,NOTE_D5,
  NOTE_D5,NOTE_D5,NOTE_E5,NOTE_A5,NOTE_FS5,
  NOTE_G5,NOTE_RT,NOTE_D5,NOTE_G5,

  NOTE_G5,NOTE_A5,NOTE_G5,NOTE_FS5,NOTE_E5,NOTE_E5,NOTE_RT,
  NOTE_E5,NOTE_A5,NOTE_A5,NOTE_B5,NOTE_A5,NOTE_G5,
  NOTE_FS5,NOTE_D5,NOTE_RT,NOTE_D5,NOTE_B5,
  NOTE_B5,NOTE_C6,NOTE_B5,NOTE_A5,NOTE_G5,NOTE_E5,
  NOTE_D5,NOTE_D5,NOTE_E5,NOTE_A5,NOTE_FS5,
  NOTE_G5
};

PROGMEM const unsigned int noteDurations[] = {
  256,256,
  128,128,128,128,256,128,128,
  256,256,128,128,128,128,
  256,128,128,256,256,
  128,128,128,128,256,256,
  128,128,256,256,256,

  394,128,256,256,
  256,256,512,
  256,256,256,256,
  394,128,256,256,
  256,256,256,256,
  128,128,256,256,256,
  394,128,256,256,

  128,128,128,128,256,128,128,
  256,256,128,128,128,128,
  256,128,128,256,256,
  128,128,128,128,256,256,
  128,128,256,256,256,
  512
};
